<svg width="29" height="30" viewBox="0 0 29 30" fill="none" xmlns="http://www.w3.org/2000/svg">
<path d="M19.4775 15.955C20.0082 15.3327 20.0082 14.3264 19.4775 13.7107L11.3478 4.17081C10.9582 3.71401 10.3767 3.5816 9.8686 3.82655C9.36049 4.0715 9.03304 4.65409 9.03304 5.29627V10.5925H2.70991C1.21382 10.5925 0 12.0159 0 13.7703V15.8888C0 17.6432 1.21382 19.0666 2.70991 19.0666H9.03304V24.3628C9.03304 25.005 9.36049 25.5876 9.8686 25.8325C10.3767 26.0775 10.9582 25.9451 11.3478 25.4883L19.4775 15.955ZM19.8727 25.4221C18.8734 25.4221 18.0661 26.3688 18.0661 27.5406C18.0661 28.7124 18.8734 29.6591 19.8727 29.6591H23.4859C26.4781 29.6591 28.9057 26.8123 28.9057 23.3036V6.35552C28.9057 2.84674 26.4781 0 23.4859 0H19.8727C18.8734 0 18.0661 0.946708 18.0661 2.11851C18.0661 3.29031 18.8734 4.23701 19.8727 4.23701H23.4859C24.4852 4.23701 25.2925 5.18372 25.2925 6.35552V23.3036C25.2925 24.4754 24.4852 25.4221 23.4859 25.4221H19.8727Z" fill="white"/>
</svg>
